<?xml version="1.0" encoding="UTF-8"?>
<svg xmlns="http://www.w3.org/2000/svg" xmlns:xlink="http://www.w3.org/1999/xlink" width="48px" height="48px" viewBox="0 0 48 48" version="1.1">
<g id="surface1">
<path style=" stroke:none;fill-rule:nonzero;fill:rgb(0%,0%,0%);fill-opacity:1;" d="M 24 3.101562 C 12.160156 3.101562 2.570312 12.695312 2.570312 24.53125 C 2.570312 34 8.710938 42.03125 17.222656 44.859375 C 18.292969 45.0625 18.6875 44.398438 18.6875 43.832031 C 18.6875 43.320312 18.667969 41.972656 18.660156 40.1875 C 12.699219 41.480469 11.441406 37.3125 11.441406 37.3125 C 10.46875 34.839844 9.058594 34.179688 9.058594 34.179688 C 7.117188 32.851562 9.207031 32.875 9.207031 32.875 C 11.359375 33.027344 12.492188 35.082031 12.492188 35.082031 C 14.402344 38.359375 17.507812 37.414062 18.730469 36.867188 C 18.925781 35.480469 19.476562 34.535156 20.089844 34 C 15.332031 33.464844 10.328125 31.621094 10.328125 23.410156 C 10.328125 21.070312 11.160156 19.160156 12.535156 17.660156 C 12.292969 17.121094 11.570312 14.941406 12.722656 11.988281 C 12.722656 11.988281 14.515625 11.414062 18.613281 14.1875 C 20.328125 13.707031 22.148438 13.472656 23.972656 13.460938 C 25.792969 13.472656 27.613281 13.707031 29.328125 14.1875 C 33.398438 11.414062 35.195312 11.988281 35.195312 11.988281 C 36.347656 14.941406 35.625 17.121094 35.410156 17.660156 C 36.773438 19.160156 37.605469 21.070312 37.605469 23.410156 C 37.605469 31.644531 32.597656 33.457031 27.828125 33.980469 C 28.578125 34.625 29.273438 35.9375 29.273438 37.945312 C 29.273438 40.8125 29.25 43.117188 29.25 43.8125 C 29.25 44.375 29.625 45.046875 30.722656 44.832031 C 39.292969 42.019531 45.429688 33.984375 45.429688 24.53125 C 45.429688 12.695312 35.832031 3.101562 24 3.101562 "/>
</g>
</svg>
